{"title":"Copa Do Sexo","uid":7070334,"size":1282111586,"categoryP":"porn","categoryS":"movies","magnet":"?xt=urn:btih:841d775b83d4d0dbe704c15ed6be1e1f314d6457&amp;dn=Copa+Do+Sexo&amp;tr=udp%3A%2F%2Ftracker.openbittorrent.com%3A80&amp;tr=udp%3A%2F%2Fopen.demonii.com%3A1337&amp;tr=udp%3A%2F%2Ftracker.coppersurfer.tk%3A6969&amp;tr=udp%3A%2F%2Fexodus.desync.com%3A6969","seeders":1,"leechers":0,"uploader":"tigris1968","files":5,"time":1330637593,"description":"Copa Do Sexo\n\nfrond , back\n &lt;a href=&quot;\nhttp://bayimg.com/LaMOEaadP&quot; rel=&quot;nofollow&quot; target=&quot;_NEW&quot;&gt;\nhttp://bayimg.com/LaMOEaadP&lt;/a&gt;\n\nscreenshots\n &lt;a href=&quot;\nhttp://bayimg.com/LamOiaaDp&quot; rel=&quot;nofollow&quot; target=&quot;_NEW&quot;&gt;\nhttp://bayimg.com/LamOiaaDp&lt;/a&gt;\n\n                             info\n\nGeneral\nComplete name                    : C:\\Downloads\\Copa Do Sexo\\Copa Do Sexo.avi\nFormat                           : AVI\nFormat/Info                      : Audio Video Interleave\nFormat profile                   : OpenDML\nFile size                        : 1.19 GiB\nDuration                         : 2h 9mn\nOverall bit rate                 : 1 315 Kbps\nWriting application              : MEncoder SVN-r30881(20100311-gcc4.3.3)\nWriting library                  : MPlayer\n\nVideo\nID                               : 0\nFormat                           : MPEG-4 Visual\nFormat profile                   : Advanced Simple@L5\nFormat settings, BVOP            : 2\nFormat settings, QPel            : No\nFormat settings, GMC             : No warppoints\nFormat settings, Matrix          : Default (H.263)\nCodec ID                         : XVID\nCodec ID/Hint                    : XviD\nDuration                         : 2h 9mn\nBit rate                         : 50.2 Kbps\nWidth                            : 720 pixels\nHeight                           : 480 pixels\nDisplay aspect ratio             : 3:2\nFrame rate                       : 25.000 fps\nStandard                         : NTSC\nColor space                      : YUV\nChroma subsampling               : 4:2:0\nBit depth                        : 8 bits\nScan type                        : Progressive\nCompression mode                 : Lossy\nBits/(Pixel*Frame)               : 0.006\nStream size                      : 46.6 MiB (4%)\nWriting library                  : XviD 1.2.1 (UTC 2008-12-04)\n\nAudio\nID                               : 1\nFormat                           : MPEG Audio\nCodec ID                         : 55\nCodec ID/Hint                    : MP3\nDuration                         : 2h 9mn\nBit rate                         : 128 Kbps\nChannel(s)                       : 2 channels\nSampling rate                    : 44.1 KHz\nCompression mode                 : Lossy\nStream size                      : 119 MiB (10%)\nAlignment                        : Aligned on interleaves\n\n","torrent":{"xt":"urn:btih:841d775b83d4d0dbe704c15ed6be1e1f314d6457","amp;dn":"Copa+Do+Sexo","amp;tr":["udp%3A%2F%2Ftracker.openbittorrent.com%3A80","udp%3A%2F%2Fopen.demonii.com%3A1337","udp%3A%2F%2Ftracker.coppersurfer.tk%3A6969","udp%3A%2F%2Fexodus.desync.com%3A6969"],"infoHash":"841d775b83d4d0dbe704c15ed6be1e1f314d6457","infoHashBuffer":{"type":"Buffer","data":[132,29,119,91,131,212,208,219,231,4,193,94,214,190,30,31,49,77,100,87]},"announce":[],"urlList":[]}}